# xmcd
#
# Track frame offsets:
#	150
#	22167
#	29892
#	43222
#	47524
#	78502
#	87549
#	104171
#	108661
#	129768
#	138786
#	152195
#	156751
#	175596
#	178663
#	201626
#	202558
#	228267
#	237315
#	259320
#	264353
#	282454
#	290112
#	316940
#
# Disc length: 4461 seconds
#
# Revision: 0
# Processed by: cddbd v1.5.2PL0 Copyright (c) Steve Scherf et al.
# Submitted via: audiograbber 1.83.01
#
DISCID=64116b18
DTITLE=Georg Danzer - Und manchmal kann's auch regnen Disc 2
DYEAR=2007
DGENRE=Austropop
TTITLE0=Jö schau
TTITLE1=Begrüssung Willi Resetarits
TTITLE2=Die Freiheit
TTITLE3=Auf die falsche Fährte
TTITLE4=Da oide Wessely
TTITLE5=Begrüssung Marianne Mendt
TTITLE6=Bleib da
TTITLE7=Man macht sich selber Mut
TTITLE8=Wird scho werdn 
TTITLE9=Begrüssung Rainhard Fendrich
TTITLE10=Vorstadtcasanova
TTITLE11=Begrüssung Wolfgang Ambros
TTITLE12=Lass mi amoi no d'Sunn aufgeh' segn
TTITLE13=Am Tamburin scheiden sich die Geister
TTITLE14=Griechenland
TTITLE15=Man sollte wieder proben
TTITLE16=Ruaf mi ned au
TTITLE17=Menschen, die Utopien haben
TTITLE18=Träumer
TTITLE19=Ich hätt' g'sungen oder 'pfiffen
TTITLE20=I fürcht mi net
TTITLE21=Dankeschön
TTITLE22=Weisse Pferde
TTITLE23=Atemzüge
EXTD=
EXTT0=
EXTT1=
EXTT2=
EXTT3=
EXTT4=
EXTT5=
EXTT6=
EXTT7=
EXTT8=
EXTT9=
EXTT10=
EXTT11=
EXTT12=
EXTT13=
EXTT14=
EXTT15=
EXTT16=
EXTT17=
EXTT18=
EXTT19=
EXTT20=
EXTT21=
EXTT22=
EXTT23=
PLAYORDER=
